<?xml version="1.0" encoding="utf-8"?>
<!-- Generator: Adobe Illustrator 26.3.1, SVG Export Plug-In . SVG Version: 6.00 Build 0)  -->
<svg version="1.1" id="Capa_1" xmlns="http://www.w3.org/2000/svg" xmlns:xlink="http://www.w3.org/1999/xlink" x="0px" y="0px"
	 viewBox="0 0 275 275" style="enable-background:new 0 0 275 275;" xml:space="preserve">
<style type="text/css">
	.st0{fill:#1D1D1B;}
	.st1{fill:none;}
	.st2{fill:#3E49EC;}
	.st3{fill:#3ACEC2;}
	.st4{fill:#3F7DEA;}
	.st5{fill:#1E1C1D;}
	.st6{fill:#0A46B1;}
	.st7{fill:#3F4AE7;}
	.st8{fill:#22ECB4;}
	.st9{fill:#14CE99;}
</style>
<g>
	<path class="st0" d="M222.7,275H52.3C23.4,275,0,251.6,0,222.7V52.3C0,23.4,23.4,0,52.3,0h170.3C251.6,0,275,23.4,275,52.3v170.3
		C275,251.6,251.6,275,222.7,275z"/>
</g>
<g>
	<path vector-effect="non-scaling-stroke" class="st1" d="M159.6,84.4l-8.7-9.4c-0.7-0.7-1.6-1.2-2.8-1.3c-25.5-3.5-51-7-76.5-10.5
		c-6.9-0.9-12-2.4-13.1,6c-1.6,12.1-3.2,24.1-4.8,36.2c-0.3,2.6,0.4,5.5,2.8,6.4c12.6,4.7,35.6,12.6,69,23.9"/>
	<path vector-effect="non-scaling-stroke" class="st1" d="M125.5,135.8c23,8.1,46.1,16.1,69.2,24c0.7,0.2,2.1,0.9,4.3,2.1"/>
	<path vector-effect="non-scaling-stroke" class="st1" d="M199.1,161.9c1.8,1.4,2.8,3.2,3,5.4"/>
	<path vector-effect="non-scaling-stroke" class="st1" d="M202.1,167.3c-0.3,7.8-5.5,7.6-11.4,5.7c-21.1-6.8-42.2-13.5-63.4-20.2"/>
	<path vector-effect="non-scaling-stroke" class="st1" d="M127.3,152.8c-27-8.9-54.1-17.7-81.2-26.2c-7.4-2.3-11.9-3.5-11.6-11.8
		c0.4-15.8,0.9-31.5,1.4-47.3C36,64,34.7,61.8,32,61c-4.4-1.3-20.2,5.6-25.2,7.3c-4.2,1.5-5.5,4.1-4,8.5c9.4,27.8,19,55.5,28.7,83.2
		"/>
	<path vector-effect="non-scaling-stroke" class="st1" d="M31.5,160l12.9,37.4"/>
	<path vector-effect="non-scaling-stroke" class="st1" d="M44.4,197.5c7.3,21.8,14.8,43.5,22.3,65.1c1.2,3.5,3.1,10.8,8.1,9.1
		c25-8.6,50-17.2,75-25.8c0.3-0.1,0.6-0.3,0.8-0.6c5.1-6.7,0-9.9-6.2-10.1c-19.5-0.4-38.8-0.9-58.1-1.3c-0.4,0-0.7-0.3-0.8-0.7
		l-7.6-54c-0.1-0.4,0.2-0.8,0.5-1c11.3-6.4,3.2-21.2-7.2-16.4c-7.9,3.6-5.9,14.6,2.1,16.8c0.5,0.1,0.8,0.5,0.9,1l7,53.5
		c0,0.3-0.2,0.6-0.5,0.7c0,0-0.1,0-0.1,0c-4.6-0.1-12.2,0.9-13-5.5c-1.2-9.2-2.5-18.2-3.9-27"/>
	<path vector-effect="non-scaling-stroke" class="st1" d="M63.8,201.3l-5.6-43"/>
	<path vector-effect="non-scaling-stroke" class="st1" d="M58.3,158.3c-0.4-4.2-0.9-8.3-1.5-12.5c-0.8-6.4,3.3-7.9,8.9-6.2
		c12.1,3.7,24.3,7.5,36.4,11.2c2.4,0.7,4,1.9,4.9,3.6"/>
	<path vector-effect="non-scaling-stroke" class="st1" d="M107,154.3c1,4.5-0.8,10.8-1.8,17.8c-0.5,3.8-1.1,5.8,1.2,8.3
		c5.7,6.3,11.6,12.5,17.5,18.6c0.2,0.2,0.5,0.4,0.8,0.4c2.6,0.4,5.2,0.8,7.7,1.2c24.1,3.2,48.2,6.4,72.4,9.7
		c5.2,0.7,9.6,1.5,10.6-4.6c1.1-7,2.9-20.7,5.3-41.1"/>
	<path vector-effect="non-scaling-stroke" class="st1" d="M220.7,164.7c-1.2-3.5-3.5-3.5-6.5-4.6c-28.5-10-57.1-19.9-85.7-29.8"/>
	<path vector-effect="non-scaling-stroke" class="st1" d="M128.6,130.3c-17.6-6.3-35.1-12.4-52.8-18.4c-2.3-0.8-3.7-3.4-3.5-5.9
		c0.4-5.8,3.7-7.6,10-5.6c18.5,6,37,11.9,55.5,17.6"/>
	<path vector-effect="non-scaling-stroke" class="st1" d="M137.8,118l92.5,29.6"/>
	<path vector-effect="non-scaling-stroke" class="st1" d="M230.3,147.6c5.6,2.1,9.5,3.4,9.3,9.7c-0.5,23-0.9,39.5-1.3,49.4
		c-0.2,5.9,4.5,7,9.3,5.4c6.6-2.2,13.1-4.5,19.6-6.8c4.8-1.8,5.9-4.6,4.2-9.5c-10.8-31.4-21.6-62.9-32.4-94.3
		c-0.2-0.6-0.6-1.2-1.1-1.8"/>
	<path vector-effect="non-scaling-stroke" class="st1" d="M238,99.8c-9.9-29-19.8-58.1-29.8-87.3C206,6.2,204.8,0.4,197.3,3
		c-22,7.6-44.1,15.1-66.2,22.6c-2.5,0.8-4.9,1.8-7,2.9c-1.1,0.5-1.7,1.4-2,2.6c-1,5,1.8,6.9,6.5,7.1c19.9,0.6,39.9,1,60.2,1.5
		c0.5,0,0.8,0.4,0.9,0.8l7.1,52.4c0,0.3-0.1,0.6-0.4,0.7c-15.3,7.5,2.8,26.4,10.7,13.1c3.3-5.6-0.4-11.6-6.1-13.6
		c-0.3-0.1-0.5-0.3-0.6-0.7l-7-51.9c0-0.3,0.1-0.5,0.4-0.6c1.2-0.2,2.4-0.3,3.6-0.2c5.2,0.3,8.6,0.4,9.5,6.8
		c3.6,27,7.1,54,10.7,81.1c0.7,5.5-2.5,8.4-7.7,6.9c-12.1-3.5-24.2-7.3-36.1-11.2c-5.7-1.9-7.5-2.5-6.5-9.3c0.7-5.1,1.5-10.4,2.3-16
		c0.3-1.8-0.2-3.2-1.3-4.4l-8.7-9.2"/>
	<path vector-effect="non-scaling-stroke" class="st1" d="M238,99.8l-7.7,47.8"/>
	<path vector-effect="non-scaling-stroke" class="st1" d="M137.8,118l-0.1-1.2c0-0.4,0-0.7,0.1-0.9c6.8-10.8,14.1-21.3,21.8-31.5"/>
	<path vector-effect="non-scaling-stroke" class="st1" d="M128.6,130.3c-1.5,1.5-2.6,3.3-3,5.5"/>
	<path vector-effect="non-scaling-stroke" class="st1" d="M220.7,164.7c-2.1,0.5-16.7,3.9-17.2,3.3"/>
	<path vector-effect="non-scaling-stroke" class="st1" d="M203.5,168l-0.2-0.3c-0.2-0.2-0.2-0.4-0.2-0.6c0.4-3.3-0.9-5-4-5.2"/>
	<path vector-effect="non-scaling-stroke" class="st1" d="M202.1,167.3l1.5,0.7"/>
	<path vector-effect="non-scaling-stroke" class="st1" d="M127.3,152.8l-0.5,0.9c-0.1,0.2-0.5,0.4-0.8,0.3
		c-6.6-0.7-12.7,0.4-19.1,0.3"/>
	<path vector-effect="non-scaling-stroke" class="st1" d="M58.3,158.3c-6.4,0.1-12.9,0.3-19.2,0.5c-3.1,0.1-5.7,0.5-7.5,1.2"/>
	<path vector-effect="non-scaling-stroke" class="st1" d="M63.8,201.3l-19.5-3.8"/>
	<path vector-effect="non-scaling-stroke" class="st1" d="M204.7,102.1c0-2.8-2.3-5.1-5.1-5.1l0,0c-2.8,0-5.1,2.3-5.1,5.1l0,0
		c0,2.8,2.3,5.1,5.1,5.1l0,0C202.4,107.2,204.7,104.9,204.7,102.1L204.7,102.1"/>
	<path vector-effect="non-scaling-stroke" class="st1" d="M80.2,169.7c0-2.8-2.3-5.1-5.1-5.1s-5.1,2.3-5.1,5.1s2.3,5.1,5.1,5.1
		S80.2,172.5,80.2,169.7"/>
</g>
<path class="st2" d="M238,99.8l-7.7,47.8L137.8,118l-0.1-1.2c0-0.4,0-0.7,0.1-0.9c6.8-10.8,14.1-21.3,21.8-31.5l8.7,9.2
	c1.1,1.2,1.5,2.7,1.3,4.4c-0.8,5.6-1.6,10.9-2.3,16c-1,6.8,0.8,7.5,6.5,9.3c12,3.9,24,7.6,36.1,11.2c5.2,1.5,8.4-1.4,7.7-6.9
	c-3.5-27-7.1-54.1-10.7-81.1c-0.8-6.4-4.3-6.5-9.5-6.8c-1.2-0.1-2.4,0-3.6,0.2c-0.3,0.1-0.5,0.3-0.4,0.6l7,51.9
	c0,0.3,0.3,0.6,0.6,0.7c5.7,2,9.4,8,6.1,13.6c-7.8,13.3-25.9-5.7-10.7-13.1c0.3-0.1,0.4-0.4,0.4-0.7l-7.1-52.4
	c-0.1-0.5-0.5-0.8-0.9-0.8c-20.3-0.4-40.3-0.9-60.2-1.5c-4.7-0.1-7.5-2-6.5-7.1c0.2-1.2,0.9-2.1,2-2.6c2.2-1.1,4.5-2.1,7-2.9
	c22.1-7.5,44.1-15,66.2-22.6c7.5-2.6,8.7,3.2,10.8,9.5C218.1,41.6,228.1,70.7,238,99.8z M204.7,102.1c0-2.8-2.3-5.1-5.1-5.1l0,0
	c-2.8,0-5.1,2.3-5.1,5.1l0,0c0,2.8,2.3,5.1,5.1,5.1l0,0C202.4,107.2,204.7,104.9,204.7,102.1L204.7,102.1z"/>
<path class="st3" d="M127.3,152.8l-0.5,0.9c-0.1,0.2-0.5,0.4-0.8,0.3c-6.6-0.7-12.7,0.4-19.1,0.3c-0.9-1.6-2.5-2.8-4.9-3.6
	c-12.1-3.8-24.2-7.5-36.4-11.2c-5.6-1.7-9.7-0.2-8.9,6.2c0.5,4.1,1,8.3,1.5,12.5c-6.4,0.1-12.9,0.3-19.2,0.5
	c-3.1,0.1-5.7,0.5-7.5,1.2c-9.7-27.7-19.3-55.4-28.7-83.2c-1.5-4.4-0.2-7.1,4-8.5c5-1.7,20.8-8.6,25.2-7.3c2.7,0.8,3.9,2.9,3.8,6.5
	c-0.5,15.8-1,31.5-1.4,47.3c-0.2,8.4,4.2,9.5,11.6,11.8C73.3,135.1,100.3,143.9,127.3,152.8z"/>
<path class="st4" d="M159.6,84.4c-7.7,10.2-15,20.7-21.8,31.5c-0.1,0.2-0.2,0.5-0.1,0.9l0.1,1.2c-18.5-5.7-37.1-11.6-55.5-17.6
	c-6.2-2-9.5-0.1-10,5.6c-0.2,2.5,1.2,5.1,3.5,5.9c17.6,6,35.2,12.1,52.8,18.4c-1.5,1.5-2.6,3.3-3,5.5c-33.4-11.3-56.4-19.3-69-23.9
	c-2.4-0.9-3.2-3.8-2.8-6.4c1.6-12.1,3.2-24.1,4.8-36.2c1.1-8.5,6.2-7,13.1-6c25.6,3.5,51.1,7,76.5,10.5c1.2,0.2,2.1,0.6,2.8,1.3
	L159.6,84.4z"/>
<circle class="st5" cx="199.6" cy="102.1" r="5.1"/>
<path class="st6" d="M238,99.8c0.5,0.6,0.9,1.2,1.1,1.8c10.8,31.4,21.6,62.8,32.4,94.3c1.7,4.9,0.6,7.7-4.2,9.5
	c-6.5,2.4-13.1,4.6-19.6,6.8c-4.8,1.6-9.5,0.5-9.3-5.4c0.3-9.9,0.8-26.4,1.3-49.4c0.1-6.3-3.7-7.6-9.3-9.7L238,99.8z"/>
<path class="st7" d="M128.6,130.3c28.6,9.9,57.1,19.8,85.7,29.8c3,1.1,5.4,1.1,6.5,4.6c-2.1,0.5-16.7,3.9-17.2,3.3l-0.2-0.3
	c-0.2-0.2-0.2-0.4-0.2-0.6c0.4-3.3-0.9-5-4-5.2c-2.2-1.2-3.6-1.9-4.3-2.1c-23.1-7.9-46.2-15.9-69.2-24
	C126,133.6,127,131.8,128.6,130.3z"/>
<path class="st8" d="M127.3,152.8c21.1,6.7,42.3,13.4,63.4,20.2c5.9,1.9,11.1,2.1,11.4-5.7l1.5,0.7c0.5,0.6,15.1-2.9,17.2-3.3
	c-2.4,20.4-4.2,34.1-5.3,41.1c-1,6.1-5.5,5.3-10.6,4.6c-24.1-3.3-48.2-6.5-72.4-9.7c-2.6-0.3-5.2-0.7-7.7-1.2
	c-0.3-0.1-0.6-0.2-0.8-0.4c-5.9-6.1-11.8-12.3-17.5-18.6c-2.3-2.5-1.7-4.5-1.2-8.3c0.9-7,2.7-13.3,1.8-17.8c6.4,0.1,12.5-1,19.1-0.3
	c0.4,0,0.7-0.1,0.8-0.3L127.3,152.8z"/>
<path class="st8" d="M58.3,158.3l5.6,43l-19.5-3.8L31.5,160c1.9-0.7,4.4-1.1,7.5-1.2C45.4,158.6,51.8,158.4,58.3,158.3z"/>
<path class="st9" d="M44.4,197.5l19.5,3.8c1.4,8.8,2.7,17.8,3.9,27c0.8,6.4,8.4,5.3,13,5.5c0.3,0,0.6-0.3,0.6-0.6c0,0,0-0.1,0-0.1
	l-7-53.5c-0.1-0.5-0.4-0.9-0.9-1c-8.1-2.1-10-13.1-2.1-16.8c10.4-4.8,18.5,9.9,7.2,16.4c-0.4,0.2-0.6,0.6-0.5,1l7.6,54
	c0.1,0.4,0.4,0.7,0.8,0.7c19.3,0.4,38.7,0.9,58.1,1.3c6.2,0.1,11.3,3.4,6.2,10.1c-0.2,0.3-0.5,0.4-0.8,0.6c-25,8.6-50,17.2-75,25.8
	c-5,1.7-6.9-5.5-8.1-9.1C59.1,240.9,51.7,219.3,44.4,197.5z M80.2,169.7c0-2.8-2.3-5.1-5.1-5.1s-5.1,2.3-5.1,5.1s2.3,5.1,5.1,5.1
	S80.2,172.5,80.2,169.7z"/>
<path class="st4" d="M203.5,168l-1.5-0.7c-0.2-2.2-1.1-3.9-3-5.4c3.1,0.2,4.4,1.9,4,5.2c0,0.1,0.1,0.3,0.2,0.6L203.5,168z"/>
<circle class="st5" cx="75.1" cy="169.7" r="5.1"/>
</svg>
